<svg xmlns="http://www.w3.org/2000/svg" xmlns:svg="http://www.w3.org/2000/svg" id="svg2" width="256" height="256" version="1.1" viewBox="0 0 256 256"><metadata id="metadata8"/><path style="fill:#3b4552;fill-opacity:1;stroke:none;stroke-width:1.93276381" id="circle3368" d="m 211.33966,96.067802 c 0,5.992928 7.91763,11.579358 6.74724,17.584548 -1.17039,6.00519 -11.48804,8.10481 -13.8219,13.58637 -2.33386,5.48156 3.54667,14.45202 0.2853,19.35834 -3.26137,4.90632 -13.42612,3.16349 -17.72981,7.43515 -4.30369,4.27166 -2.84179,14.82951 -7.85007,18.16415 -5.00827,3.33464 -14.16074,-2.55764 -19.80601,-0.26061 -5.64527,2.29703 -8.12649,12.89205 -13.9027,13.97052 -5.77621,1.07847 -11.48439,-7.0737 -17.64561,-7.0737 -6.16121,0 -12.25109,7.92446 -18.34832,6.62698 -6.09723,-1.29748 -7.59194,-10.41046 -12.762714,-12.66396 -5.170777,-2.2535 -13.376422,2.91752 -18.36,-0.36786 -4.983578,-3.28538 -5.262182,-14.36977 -9.53734,-18.79261 -4.275158,-4.42285 -12.851882,-1.69906 -16.45127,-7.12771 -3.599388,-5.42865 1.214828,-13.41741 -0.770599,-19.03959 -1.985426,-5.62218 -11.704615,-8.69661 -12.692518,-13.74392 -0.987903,-5.04731 7.500299,-12.47926 7.500299,-18.614887 0,-6.135628 -8.588091,-11.321696 -7.392633,-17.238661 C 39.996464,71.953386 50.643513,69.536 52.904546,64.153032 55.165579,58.770064 48.868664,50.58811 52.15073,45.63683 c 3.282066,-4.951281 13.747588,-4.272318 18.076133,-8.582161 4.328545,-4.309842 2.720858,-13.899039 7.694198,-17.198646 4.97334,-3.299607 13.104622,1.205446 18.503316,-1.022051 5.398693,-2.227496 7.894433,-11.1597399 13.714143,-12.3387556 5.81971,-1.1790158 12.1411,6.0407876 18.24461,6.0407876 6.10351,-1e-6 11.68483,-7.3111077 17.42643,-6.2026403 5.7416,1.1084674 8.13974,10.5614813 13.80595,12.8572833 5.6662,2.295802 14.94429,-2.23592 19.8907,1.108078 4.94641,3.343998 2.48246,11.892283 6.64749,15.99066 4.16503,4.098377 14.62827,3.666275 18.01677,8.682357 3.3885,5.016082 -2.02844,13.500558 0.32346,19.125397 2.3519,5.62484 12.47407,8.60159 13.61721,14.510953 1.14314,5.909363 -6.77148,11.466779 -6.77148,17.45971 z"/><circle id="circle3346" cx="128.383" cy="96.068" r="63.532" style="fill:#fff;fill-opacity:1;stroke:none;stroke-width:1.34354317"/><circle style="fill:#2b78c2;fill-opacity:1;stroke:none;stroke-width:1.09952056" id="path3342" cx="128.383" cy="96.068" r="51.993"/><path style="fill:#2b78c2;fill-rule:evenodd;stroke:none;stroke-width:1px;stroke-linecap:butt;stroke-linejoin:miter;stroke-opacity:1;fill-opacity:1" id="path3338" d="m 83.989904,184.28259 8.053826,-1.24642 c 9.05399,16.12754 16.49528,14.24662 24.0656,13.80656 l -10.83431,53.1169 -14.190079,-13.51892 -18.984019,4.79394 z"/><path id="path3340" d="m 171.81497,184.37847 -8.05383,-1.24642 c -9.05399,16.12754 -16.49528,14.24662 -24.0656,13.80656 l 10.83431,53.1169 14.19008,-13.51892 18.98402,4.79394 z" style="fill:#2b78c2;fill-opacity:1;fill-rule:evenodd;stroke:none;stroke-width:1px;stroke-linecap:butt;stroke-linejoin:miter;stroke-opacity:1"/><path style="fill:#fff;fill-opacity:1;stroke:none" id="path3350" d="m 147.10763,127.15966 -18.87851,-10.66672 -19.29578,10.61355 c -2.14644,1.18064 -5.60088,-1.48065 -5.11608,-3.87048 l 4.26518,-21.02547 -15.410855,-14.46528 c -1.952657,-1.832846 -1.388891,-6.342484 1.848072,-6.713162 l 20.920483,-2.395688 9.61304,-20.440593 c 0.75725,-1.610169 4.6613,-2.921345 5.96156,-0.04186 l 9.11939,20.195236 22.68645,2.860817 c 3.08062,0.388473 2.79381,4.411669 1.38356,5.705416 l -16.16599,14.830394 4.28375,22.429 c 0.38417,2.01144 -2.29024,4.63697 -5.21427,2.98484 z"/></svg>